<svg xmlns="http://www.w3.org/2000/svg" style="display:none">
    
<symbol id="share" viewBox="0 0 24 24">
    <path d="M18 8a3 3 0 1 0-2.82-4A3 3 0 0 0 15 5
                     L8.91 8.13A3 3 0 0 0 7 7.5a3 3 0 1 0 1.91 5.37
                     l6.09 3.05A3 3 0 1 0 16 14a3 3 0 0 0-.18 1
                     l-6.09-3.05A3 3 0 0 0 10 10c0-.35-.06-.69-.18-1
                     l6.09-3.05A3 3 0 0 0 18 8z"/>
</symbol>
  <symbol id="facebook" viewBox="0 0 24 24">
       <path d="M14 8h2V4h-2c-2.2 0-4 1.8-4 4v2H8v4h2v6h4v-6h2.5l.5-4H14V8z"/>
      </symbol>

  <symbol id="instagram" viewBox="0 0 24 24">
    <path d="M7 2C4.2 2 2 4.2 2 7v10c0 2.8 2.2 5 5 5h10c2.8 0 5-2.2 5-5V7
                c0-2.8-2.2-5-5-5H7zm5 4a6 6 0 1 1 0 12a6 6 0 0 1 0-12zm6-.5
                a1.5 1.5 0 1 1 0 3a1.5 1.5 0 0 1 0-3z"/>
                
  </symbol>

  <symbol id="x" viewBox="0 0 24 24">
    <path d="M4 4h4.5l4.1 5.4L17.2 4H20l-6.1 7.1L20 20h-4.5l-4.5-5.9L6.8 20H4
                l6.7-7.8z"/>
  </symbol>
    <symbol id="pinterest" viewBox="0 0 24 24">
        <path d="M12 2a10 10 0 0 0-3.6 19.3l1.1-4.2c-.3-.6-.5-1.5-.5-2.4
                0-2.3 1.3-4 3.2-4 1.5 0 2.2 1.1 2.2 2.4 0 1.5-.9 3.7-1.4 5.8
                -.4 1.7.9 3.1 2.5 3.1 3 0 5.3-3.2 5.3-7.7
                0-4-2.9-6.8-7-6.8-4.8 0-7.6 3.6-7.6 7.3
                0 1.4.5 2.9 1.2 3.7.1.2.1.3.1.5l-.4 1.5
                c-.1.2-.2.3-.5.2-1.8-.8-2.9-3.3-2.9-5.4
                0-4.4 3.2-8.4 9.3-8.4 4.9 0 8.7 3.5 8.7 8.2
                0 4.9-3.1 8.9-7.4 8.9-1.4 0-2.8-.8-3.3-1.7l-.9 3.4
                c-.3 1.2-1.2 2.7-1.8 3.6.7.2 1.5.3 2.3.3
                5.5 0 10-4.5 10-10S17.5 2 12 2z"/>
    </symbol>
    <symbol id="tiktok" viewBox="0 0 24 24">
        <path d="M14 3c.5 2.3 1.9 3.8 4 4v3c-1.3 0-2.7-.4-4-1.2V15
                a5 5 0 1 1-5-5v3a2 2 0 1 0 2 2V3z"/>
    </symbol>
</svg>
